<?xml version="1.0" encoding="UTF-8" standalone="no"?>
<!-- Created with Inkscape (http://www.inkscape.org/) -->

<svg
   xmlns:dc="http://purl.org/dc/elements/1.1/"
   xmlns:cc="http://creativecommons.org/ns#"
   xmlns:rdf="http://www.w3.org/1999/02/22-rdf-syntax-ns#"
   xmlns:svg="http://www.w3.org/2000/svg"
   xmlns="http://www.w3.org/2000/svg"
   xmlns:sodipodi="http://sodipodi.sourceforge.net/DTD/sodipodi-0.dtd"
   xmlns:inkscape="http://www.inkscape.org/namespaces/inkscape"
   id="svg2"
   version="1.1"
   inkscape:version="0.48.4 r9939"
   width="326.7875"
   height="312.6125"
   xml:space="preserve"
   sodipodi:docname="2CMYK_ifsRot.eps"><metadata
     id="metadata8"><rdf:RDF><cc:Work
         rdf:about=""><dc:format>image/svg+xml</dc:format><dc:type
           rdf:resource="http://purl.org/dc/dcmitype/StillImage" /><dc:title></dc:title></cc:Work></rdf:RDF></metadata><defs
     id="defs6"><clipPath
       clipPathUnits="userSpaceOnUse"
       id="clipPath18"><path
         d="m 0,0 2614,0 0,2500.93 -2614,0 L 0,0 z"
         id="path20" /></clipPath></defs><sodipodi:namedview
     pagecolor="#ffffff"
     bordercolor="#666666"
     borderopacity="1"
     objecttolerance="10"
     gridtolerance="10"
     guidetolerance="10"
     inkscape:pageopacity="0"
     inkscape:pageshadow="2"
     inkscape:window-width="640"
     inkscape:window-height="480"
     id="namedview4"
     showgrid="false"
     inkscape:zoom="0.75492826"
     inkscape:cx="163.39375"
     inkscape:cy="156.30624"
     inkscape:window-x="0"
     inkscape:window-y="119"
     inkscape:window-maximized="0"
     inkscape:current-layer="g10" /><g
     id="g10"
     inkscape:groupmode="layer"
     inkscape:label="ink_ext_XXXXXX"
     transform="matrix(1.25,0,0,-1.25,0,312.6125)"><g
       id="g12"
       transform="scale(0.1,0.1)"><g
         id="g14"><g
           id="g16"
           clip-path="url(#clipPath18)"><path
             d="m 2582.74,162.172 c 0,-72.1329 -32.32,-130.6134 -72.2,-130.6134 l -2406.763,0 c -39.8786,0 -72.2106,58.4805 -72.2106,130.6134 l 0,2176.598 c 0,72.12 32.332,130.59 72.2106,130.59 l 2406.763,0 c 39.88,0 72.2,-58.47 72.2,-130.59 l 0,-2176.598 z"
             style="fill:none;stroke:#151114;stroke-opacity:1;stroke-width:63.1309;stroke-linecap:butt;stroke-linejoin:miter;stroke-miterlimit:4;stroke-dasharray:none"
             id="path22" /><path
             d="m 548.984,1991.66 c 0,-63.39 -51.871,-114.82 -115.836,-114.82 -63.972,0 -115.836,51.43 -115.836,114.82 0,63.43 51.864,114.83 115.836,114.83 63.965,0 115.836,-51.4 115.836,-114.83"
             style="fill:#ce1f41;fill-opacity:1;fill-rule:nonzero;stroke:none"
             id="path24" /><path
             d="m 548.984,1991.66 c 0,-63.39 -51.871,-114.82 -115.836,-114.82 -63.972,0 -115.836,51.43 -115.836,114.82 0,63.43 51.864,114.83 115.836,114.83 63.965,0 115.836,-51.4 115.836,-114.83 z"
             style="fill:none;stroke:#ce1f41;stroke-opacity:1;stroke-width:10.0284;stroke-linecap:butt;stroke-linejoin:miter;stroke-miterlimit:4;stroke-dasharray:none"
             id="path26" /><path
             d="m 1874,720.66 c -129.14,0 -236.42,27.051 -335.76,112.539 -17.52,15.031 -23.74,24.473 32.97,88.781 69.77,79.07 59.31,49.141 86.42,31.719 93.7,-60.25 216.37,-66.777 216.37,-66.777 123.47,12.769 176.54,68.898 177.82,133.728 1.28,64.94 -48.07,97.35 -104.73,114.61 l -137.71,13.38 c -161.54,15.28 -255.1,97.47 -255.1,267.51 0,189.19 144.58,296.18 324.84,296.18 118.66,0 229.41,-28.9 301.78,-92.95 20.22,-15.43 26.06,-26.43 -18.89,-85.74 -47.33,-68.95 -54.76,-57.12 -77.61,-44.89 0,0 -68.8,65.87 -176.99,58.44 -100.2,-6.89 -161.91,-48.87 -161.91,-121.49 0,-57.31 19.14,-89.37 94.48,-110.82 L 1976,1301.5 c 161.56,-15.3 256.8,-101.23 256.8,-273.19 0,-202.56 -153.05,-307.65 -358.8,-307.65"
             style="fill:#151114;fill-opacity:1;fill-rule:nonzero;stroke:none"
             id="path28" /><path
             d="m 537.594,739.781 c -0.309,-41.66 9.718,-42.371 -102.746,-42.371 l 0,0 c -112.188,0 -103.145,2.738 -102.735,42.371 l 0,922.049 c 0.133,46.18 -9.929,47.45 102.735,48.05 l 0,0 c 107.031,-0.6 101.871,-2.29 102.05,-48.26 l 0.696,-921.839"
             style="fill:#151114;fill-opacity:1;fill-rule:nonzero;stroke:none"
             id="path30" /><path
             d="m 918.301,727.191 c -0.11,-26.64 -0.746,-29.921 99.339,-29.921 90.09,0 105.14,0 106.4,26.308 l -0.43,402.332 128.47,0.84 c 17.56,0 17.56,5.01 16.95,76.15 -0.63,72.4 -1.89,76.16 -21.08,76.77 l -124.54,0 c 0,0 -23.2,191.18 23.55,233.12 46.73,41.94 135.99,33.72 158.04,33.11 21.5,-0.59 24.38,6.01 24.49,83.86 0.12,83.31 -1.41,85.86 -24.49,88.25 0,0 -207.04,30.54 -309.402,-73.76 -80.168,-81.66 -86.368,-179.41 -77.485,-362.56 l -93.925,-0.59 c -28.114,0.45 -30.473,-6.44 -31.887,-80.69 -1.266,-65.55 0.722,-73.8 20.75,-73.8 20.039,0 105.062,0 105.062,0 l 0.188,-399.419"
             style="fill:#151114;fill-opacity:1;fill-rule:nonzero;stroke:none"
             id="path32" /></g></g></g></g></svg>