<?xml version="1.0" encoding="UTF-8" standalone="no"?>
<!-- Created with Inkscape (http://www.inkscape.org/) -->

<svg
   xmlns:dc="http://purl.org/dc/elements/1.1/"
   xmlns:cc="http://creativecommons.org/ns#"
   xmlns:rdf="http://www.w3.org/1999/02/22-rdf-syntax-ns#"
   xmlns:svg="http://www.w3.org/2000/svg"
   xmlns="http://www.w3.org/2000/svg"
   xmlns:sodipodi="http://sodipodi.sourceforge.net/DTD/sodipodi-0.dtd"
   xmlns:inkscape="http://www.inkscape.org/namespaces/inkscape"
   id="svg2"
   version="1.1"
   inkscape:version="0.48.4 r9939"
   width="283.4625"
   height="283.4625"
   xml:space="preserve"
   sodipodi:docname="TU_Signet_CMYK.eps"><metadata
     id="metadata8"><rdf:RDF><cc:Work
         rdf:about=""><dc:format>image/svg+xml</dc:format><dc:type
           rdf:resource="http://purl.org/dc/dcmitype/StillImage" /><dc:title></dc:title></cc:Work></rdf:RDF></metadata><defs
     id="defs6"><clipPath
       clipPathUnits="userSpaceOnUse"
       id="clipPath18"><path
         d="M 0,2267.71 0,0 l 2267.72,0 0,2267.71 -2267.72,0 z"
         id="path20" /></clipPath></defs><sodipodi:namedview
     pagecolor="#ffffff"
     bordercolor="#666666"
     borderopacity="1"
     objecttolerance="10"
     gridtolerance="10"
     guidetolerance="10"
     inkscape:pageopacity="0"
     inkscape:pageshadow="2"
     inkscape:window-width="1680"
     inkscape:window-height="1026"
     id="namedview4"
     showgrid="false"
     inkscape:zoom="0.83256164"
     inkscape:cx="141.73125"
     inkscape:cy="141.73125"
     inkscape:window-x="0"
     inkscape:window-y="119"
     inkscape:window-maximized="1"
     inkscape:current-layer="g10" /><g
     id="g10"
     inkscape:groupmode="layer"
     inkscape:label="ink_ext_XXXXXX"
     transform="matrix(1.25,0,0,-1.25,0,283.4625)"><g
       id="g12"
       transform="scale(0.1,0.1)"><g
         id="g14"><g
           id="g16"
           clip-path="url(#clipPath18)"><path
             d="m 2040.94,2267.71 c 125.16,0 226.31,-101.58 226.31,-226.89 l 0.47,-1813.949 C 2267.72,101.57 2165.79,0 2040.63,0 L 226.781,0 C 101.621,0 0,101.57 0,226.871 L 0.160156,2040.82 c 0,125.31 101.300844,226.89 226.460844,226.89 l 1814.319,0 z M 480.801,922.73 l 0,804.62 242.129,0 0,-804.62 -242.129,0 z m -306.453,1117.18 846.912,0 0,-242.14 -846.912,0 0,242.14 z m 508.929,-1413.148 -81.281,0 -62.211,-251.684 -72.871,251.684 -58.293,0 -72.867,-251.684 -61.656,251.684 -81.278,0 106.5,-399.09 65.016,0 73.434,242.148 73.429,-242.148 65.024,0 107.054,399.09 z m 1353.783,-394.633 0,399.101 -77.92,0 0,-244.39 -158.07,244.39 -69.5,0 0,-399.101 77.91,0 0,244.949 158.07,-244.949 69.51,0 z m -558.18,0 0,69.512 -184.97,0 0,96.968 157.51,0 0,69.512 -157.51,0 0,93.59 184.97,0 0,69.519 -262.89,0 0,-399.101 262.89,0 z m -529.763,0 0,399.101 -77.922,0 0,-399.101 77.922,0 z m 599.423,684.18 -12.81,1.082 C 1308.74,941.09 1133.21,1132.9 1133.21,1366.17 l 0,673.74 245.4,0 -0.4,-667.76 c 0,-97.66 67.91,-185.48 159.03,-208.61 4.01,-0.96 7.13,-1.6 11.22,-2.32 l 0.08,-244.911 z m 73.48,245.261 c 3.68,0.67 6.41,1.11 10.01,1.97 91.14,23.12 159.06,110.95 159.06,208.61 l -2.09,667.76 246.97,0 0,-671.27 c 0.23,-233.28 -176.92,-427.281 -403.94,-451.261 l -9.96,-1.027 -0.05,245.218"
             style="fill:#0f6cb1;fill-opacity:1;fill-rule:evenodd;stroke:none"
             id="path22" /></g></g></g></g></svg>